<svg xmlns="http://www.w3.org/2000/svg" viewBox="0 0 54 32" width="162" height="96" style="shape-rendering: crispEdges;">
  <!-- Floating fireflies / sparkles -->
  <rect x="42" y="5" width="1" height="1" fill="#FFFFFF" />
  <rect x="43" y="6" width="1" height="1" fill="#C8E6BC" />
  <rect x="48" y="11" width="1" height="1" fill="#E8F5E9" />
  <rect x="13" y="14" width="1" height="1" fill="#A8C99A" />
  <rect x="20" y="8" width="1" height="1" fill="#DFF2D8" />
  <rect x="36" y="12" width="1" height="1" fill="#FAFDF8" />

  <!-- Left Grass Tufts on ground -->
  <rect x="2" y="27" width="1" height="3" fill="#6FA565" />
  <rect x="3" y="26" width="1" height="4" fill="#A8C99A" />
  <rect x="4" y="28" width="1" height="2" fill="#4D7845" />

  <rect x="7" y="25" width="1" height="5" fill="#6FA565" />
  <rect x="8" y="24" width="1" height="6" fill="#A8C99A" />
  <rect x="9" y="26" width="1" height="4" fill="#4D7845" />

  <!-- Soil mound -->
  <!-- Soil base outline/shadow -->
  <rect x="18" y="30" width="20" height="1" fill="#382618" />
  <rect x="19" y="29" width="18" height="1" fill="#4A3522" />
  <rect x="20" y="27" width="16" height="2" fill="#5A402A" />
  <rect x="22" y="25" width="12" height="2" fill="#664A31" />
  <rect x="24" y="24" width="8" height="1" fill="#755639" />
  <!-- Soil pebbles & texture -->
  <rect x="22" y="27" width="2" height="1" fill="#8D6847" />
  <rect x="27" y="26" width="2" height="1" fill="#9C7451" />
  <rect x="31" y="28" width="2" height="1" fill="#8D6847" />
  <rect x="25" y="28" width="3" height="1" fill="#4A3522" />
  <rect x="30" y="26" width="2" height="1" fill="#4A3522" />

  <!-- Right Grass Tufts -->
  <rect x="42" y="26" width="1" height="4" fill="#6FA565" />
  <rect x="43" y="25" width="1" height="5" fill="#A8C99A" />
  <rect x="44" y="27" width="1" height="3" fill="#4D7845" />

  <rect x="48" y="26" width="1" height="4" fill="#6FA565" />
  <rect x="49" y="27" width="1" height="3" fill="#4D7845" />

  <!-- The Sprout Stem -->
  <rect x="27" y="16" width="2" height="9" fill="#4D7845" />
  <rect x="28" y="17" width="1" height="7" fill="#6FA565" />

  <!-- Left Leaf -->
  <rect x="22" y="14" width="4" height="3" fill="#A8C99A" />
  <rect x="21" y="15" width="1" height="3" fill="#6FA565" />
  <rect x="23" y="13" width="3" height="1" fill="#C8E6BC" />
  <rect x="24" y="14" width="2" height="1" fill="#E8F5E9" />
  <rect x="23" y="16" width="4" height="1" fill="#4D7845" />

  <!-- Right Leaf -->
  <rect x="30" y="14" width="4" height="3" fill="#A8C99A" />
  <rect x="34" y="15" width="1" height="3" fill="#6FA565" />
  <rect x="30" y="13" width="3" height="1" fill="#C8E6BC" />
  <rect x="30" y="14" width="2" height="1" fill="#E8F5E9" />
  <rect x="29" y="16" width="4" height="1" fill="#4D7845" />

  <!-- Leaf top tip -->
  <rect x="27" y="15" width="2" height="1" fill="#C8E6BC" />
</svg>

